Coordinates
version=1
nRows=8
nColumns=34
inDegrees=yes

Units are S.I. units (second, meters, Newtons, ...)
If the header above contains a line with 'inDegrees', this indicates whether rotational values are in degrees (yes) or radians (no).

endheader
time	pelvis_tilt	pelvis_list	pelvis_rotation	pelvis_tx	pelvis_ty	pelvis_tz	hip_flexion_r	hip_adduction_r	hip_rotation_r	knee_angle_r	ankle_angle_r	subtalar_angle_r	mtp_angle_r	hip_flexion_l	hip_adduction_l	hip_rotation_l	knee_angle_l	ankle_angle_l	subtalar_angle_l	mtp_angle_l	lumbar_extension	lumbar_bending	lumbar_rotation	arm_flex_r	arm_add_r	arm_rot_r	elbow_flex_r	pro_sup_r	arm_flex_l	arm_add_l	arm_rot_l	elbow_flex_l	pro_sup_l
      5.38333330	    -30.80239934	     -4.43857896	      5.60328812	      0.78398005	      0.81348079	     -0.11080362	     65.28749516	     -8.48431389	     -8.25384013	     58.60000697	     18.74054197	    -25.90709188	      0.00000000	     69.41983781	     -9.91190074	      0.04659023	     61.00782107	     13.68945459	    -16.02015980	      0.00000000	     -9.40359593	     -0.94424805	     -1.53763948	     38.83485561	    -26.96474382	      7.91990178	    103.81266219	     91.47644520	     41.77119335	    -31.52349610	   -329.54281081	     91.22641663	     76.80714616
      5.40000000	    -32.75787760	     -5.08168024	      5.34996971	      0.77438770	      0.77291025	     -0.10984308	     74.67519025	     -8.63502307	     -7.10100857	     70.60152795	     25.27301835	    -26.94579094	      0.00000000	     77.67355827	     -9.48391891	      2.97213379	     71.02603605	     22.19119115	    -15.12672414	      0.00000000	     -9.63871953	     -0.28576405	     -0.67831888	     45.24751846	    -29.93854182	      8.93214390	    105.24567106	     91.29560222	     46.52305666	    -32.68399299	   -323.64030157	     94.69249375	     78.86495335
      5.41666670	    -34.20415945	     -5.58965788	      5.20532208	      0.76563187	      0.73894197	     -0.10814706	     82.41873978	     -8.95810722	     -6.77040452	     80.20193232	     28.15401009	    -28.88357998	      0.00000000	     84.58953242	     -8.66285690	      5.36427727	     79.20363209	     26.33928666	    -15.85394047	      0.00000000	    -10.92643695	     -0.11809279	      1.38512628	     50.35377296	    -33.96980118	      7.87930763	    105.66600164	     89.71927655	     53.13246176	    -31.48595185	   -315.21174626	     95.69053785	     84.66045494
      5.43333330	    -35.56314789	     -6.05299302	      5.62456239	      0.75968190	      0.69962817	     -0.10799953	     88.52151685	     -9.59202011	     -5.92630385	     87.52340615	     30.67400282	    -29.55663073	      0.00000000	     91.00049329	     -7.67694125	      7.14699515	     86.22838581	     29.30221526	    -15.84584548	      0.00000000	    -11.89561689	      0.49899299	      1.88279974	     55.56786249	    -37.26462012	     12.40078564	    107.08901083	     89.90662732	     57.89381180	    -30.37534963	   -308.16677054	     97.28783359	     86.12198159
      5.45000000	    -36.99375435	     -6.29058548	      5.72258623	      0.74542659	      0.65889327	     -0.10596104	     95.09801169	    -10.14091279	     -4.94594406	     94.07521168	     32.13017583	    -29.83039667	      0.00000000	     97.65780354	     -6.78762811	      8.51046699	     92.88527047	     30.94777808	    -15.77507793	      0.00000000	    -12.53344186	      0.59727054	      3.21744686	     60.37279663	    -41.61835985	     22.36333906	    111.04792629	     90.30829882	     64.03881207	    -26.58504661	   -300.48211150	     95.98359738	     87.15969778
      5.46666670	    -38.76478760	     -6.06652044	      5.23993393	      0.74694744	      0.62351432	     -0.11949981	    101.02325619	    -10.76104238	     -3.16693624	     99.46817162	     34.53580569	    -28.42080313	      0.00000000	    103.57246371	     -5.91819703	      9.16397706	     98.66828005	     32.01429839	    -16.40411643	      0.00000000	    -11.70075145	      0.70442279	      4.78450868	     63.49690407	    -45.03572851	     36.66440704	    115.95458971	     90.95697830	     68.40031423	    -20.18954825	   -293.82046185	     92.28392380	     87.42364477
      5.48333330	    -40.12872901	     -5.24860586	      4.77087508	      0.73079659	      0.59132149	     -0.12533585	    106.74330057	    -11.26156507	     -0.89848584	    103.88630149	     35.57575282	    -26.76100217	      0.00000000	    108.82661106	     -5.09938705	      8.67534893	    103.73902616	     33.32653482	    -16.72812768	      0.00000000	    -11.67928487	     -0.13898253	      5.83173423	     68.89307327	    -46.28834472	     52.98092443	    119.18647691	     91.26806397	     71.94658629	    -14.94999260	   -286.72506102	     86.82774748	     87.15277403
      5.50000000	    -40.55118198	     -4.48267258	      4.66417317	      0.72214459	      0.55867706	     -0.12541481	    111.87406136	    -12.02653743	      1.14028583	    108.58257218	     36.63146646	    -24.99726391	      0.00000000	    113.17302841	     -4.42050408	      8.46710966	    108.36080067	     33.89124432	    -16.99155614	      0.00000000	    -12.79754052	     -0.15408373	      4.63926398	     79.30719813	    -43.43948044	     71.58218697	    119.99418653	     89.10158659	     74.20237568	    -12.86996197	   -283.80180311	     84.69890600	     84.09317491
